<svg width="16" height="27" viewBox="0 0 16 27" fill="none" xmlns="http://www.w3.org/2000/svg">
<path d="M5.5 3C4.94772 3 4.5 3.44772 4.5 4C4.5 4.55228 4.94772 5 5.5 5H10.5C11.0523 5 11.5 4.55228 11.5 4C11.5 3.44772 11.0523 3 10.5 3H5.5Z" fill="#28A745"/>
<path d="M7 23C7 22.4477 7.44772 22 8 22C8.55229 22 9 22.4477 9 23C9 23.5523 8.55229 24 8 24C7.44772 24 7 23.5523 7 23Z" fill="#28A745"/>
<path fill-rule="evenodd" clip-rule="evenodd" d="M0 4C0 1.79086 1.79086 0 4 0H12C14.2091 0 16 1.79086 16 4V23C16 25.2091 14.2091 27 12 27H4C1.79086 27 0 25.2091 0 23V4ZM4 2C2.89543 2 2 2.89543 2 4V6H14V4C14 2.89543 13.1046 2 12 2H4ZM2 19V8H14V19H2ZM2 21V23C2 24.1046 2.89543 25 4 25H12C13.1046 25 14 24.1046 14 23V21H2Z" fill="#28A745"/>
</svg>
