<svg width="22" height="20" viewBox="0 0 22 20" fill="none" xmlns="http://www.w3.org/2000/svg">
<path d="M1.34265 8.78909C1.34265 8.78909 10.6846 4.66751 13.9245 3.2162C15.1666 2.63573 19.3785 0.778044 19.3785 0.778044C19.3785 0.778044 21.3226 -0.0346215 21.1605 1.93908C21.1065 2.75182 20.6745 5.59627 20.2425 8.67299C19.5945 13.0268 18.8925 17.787 18.8925 17.787C18.8925 17.787 18.7845 19.1222 17.8666 19.3544C16.9486 19.5866 15.4365 18.5417 15.1666 18.3094C14.9505 18.1353 11.1166 15.523 9.71259 14.2459C9.33458 13.8976 8.90261 13.201 9.76655 12.3883C11.7106 10.4726 14.0325 8.09252 15.4365 6.5832C16.0846 5.88655 16.7325 4.26114 14.0325 6.23483C10.1986 9.07936 6.41862 11.7497 6.41862 11.7497C6.41862 11.7497 5.5546 12.3302 3.93463 11.8077C2.31459 11.2853 0.424597 10.5887 0.424597 10.5887C0.424597 10.5887 -0.871319 9.71793 1.34265 8.78909Z" fill="#28A745"/>
</svg>
