<svg width="22" height="22" viewBox="0 0 22 22" fill="none" xmlns="http://www.w3.org/2000/svg">
<path d="M16.3419 12.3376C16.3009 12.3162 14.7681 11.4977 14.4958 11.3914C14.3846 11.3481 14.2654 11.3058 14.1387 11.3058C13.9318 11.3058 13.7579 11.4177 13.6225 11.6374C13.4693 11.8842 13.0058 12.4718 12.8626 12.6473C12.8439 12.6705 12.8184 12.6982 12.8031 12.6982C12.7894 12.6982 12.5521 12.5922 12.4803 12.5584C10.836 11.7838 9.58797 9.9211 9.41683 9.60698C9.39239 9.56182 9.39136 9.54132 9.39116 9.54132C9.39717 9.5174 9.45246 9.45729 9.481 9.42627C9.56448 9.33669 9.65493 9.21861 9.74245 9.10438C9.78389 9.05026 9.82539 8.99607 9.86614 8.94499C9.99311 8.78479 10.0496 8.66041 10.1152 8.51635L10.1495 8.4415C10.3095 8.09673 10.1729 7.80579 10.1287 7.71184C10.0924 7.63322 9.44523 5.93923 9.37641 5.76125C9.21094 5.3318 8.99229 5.13184 8.68845 5.13184C8.66025 5.13184 8.68845 5.13184 8.57021 5.13724C8.42624 5.14383 7.64223 5.25577 7.29558 5.49274C6.92798 5.74408 6.30609 6.54525 6.30609 7.95422C6.30609 9.22231 7.04812 10.4196 7.36671 10.875C7.37463 10.8865 7.38917 10.9098 7.41027 10.9433C8.63035 12.8756 10.1514 14.3077 11.6932 14.9757C13.1776 15.6187 13.8806 15.6931 14.2802 15.6931H14.2803C14.4482 15.6931 14.5826 15.6788 14.7012 15.6661L14.7764 15.6583C15.2892 15.609 16.4161 14.9758 16.6724 14.2032C16.8744 13.5948 16.9276 12.93 16.7933 12.6887C16.7012 12.5246 16.5427 12.4421 16.3419 12.3376Z" fill="#28A745"/>
<path d="M11.1874 0.437988C5.46681 0.437988 0.812737 5.05708 0.812737 10.7347C0.812737 12.5711 1.30418 14.3686 2.23514 15.9418L0.453244 21.1981C0.420051 21.2961 0.44474 21.4044 0.517228 21.4782C0.569554 21.5316 0.640534 21.5604 0.713023 21.5604C0.740797 21.5604 0.768778 21.5563 0.796072 21.5475L6.27694 19.8059C7.77677 20.6073 9.47192 21.0303 11.1875 21.0303C16.9076 21.0303 21.5612 16.4117 21.5612 10.7347C21.5612 5.05708 16.9076 0.437988 11.1874 0.437988ZM11.1874 18.8854C9.57314 18.8854 8.0096 18.4193 6.66558 17.5374C6.62039 17.5077 6.56792 17.4924 6.51512 17.4924C6.48721 17.4924 6.45923 17.4967 6.432 17.5053L3.68642 18.3781L4.57274 15.7632C4.60141 15.6786 4.58707 15.5853 4.53427 15.5131C3.51079 14.1146 2.96977 12.4624 2.96977 10.7347C2.96977 6.2398 6.65619 2.58288 11.1874 2.58288C15.718 2.58288 19.404 6.2398 19.404 10.7347C19.4041 15.2291 15.7181 18.8854 11.1874 18.8854Z" fill="#28A745"/>
</svg>
