<svg width="32" height="42" viewBox="0 0 32 42" fill="none" xmlns="http://www.w3.org/2000/svg">
<path d="M0.986719 0.632812C0.883594 0.675781 0.763281 0.787498 0.711719 0.88203C0.642969 1.00234 0.617188 6.69141 0.617188 19.7883V38.5227L0.840625 38.6945C1.05547 38.8578 1.18437 38.875 2.47344 38.875H3.88281V39.9062C3.88281 40.9805 3.97734 41.3758 4.26953 41.4875C4.34688 41.5133 10.3367 41.5391 17.5727 41.5391C31.7953 41.5305 30.9359 41.5648 31.125 41.075C31.2453 40.7484 31.2453 5.03281 31.125 4.70625C30.9617 4.28516 30.8242 4.25078 29.6039 4.24219H28.4609V2.69531C28.4609 1.05391 28.4094 0.804688 28.057 0.641407C27.7992 0.521091 1.27891 0.512501 0.986719 0.632812ZM27.0859 19.7539V37.5H14.5391H1.99219V19.7539V2.00781H14.5391H27.0773L27.0859 19.7539ZM29.75 22.8906V40.1641H17.5469H5.34375V39.5195V38.875H16.6875H28.0398L28.2461 38.6602L28.4609 38.4539V22.0312V5.61719H29.1055H29.75V22.8906Z" fill="#28A745"/>
<path d="M18.1141 4.28514C16.6188 4.66327 15.1922 5.78905 14.4618 7.16405C13.8602 8.28983 13.654 9.97421 13.9633 11.2031C14.3844 12.8445 15.493 14.2281 16.954 14.9242C17.968 15.4055 18.4922 15.5344 19.5235 15.5344C20.5118 15.5344 21.0704 15.4055 21.9727 14.9844C23.9922 14.0305 25.2125 12.1055 25.2125 9.87968C25.2125 7.29296 23.7258 5.25624 21.1993 4.37108C20.6063 4.15624 18.8102 4.11327 18.1141 4.28514ZM20.4 5.62577C21.9297 5.94374 23.2446 7.18124 23.6571 8.69374C24.0696 10.1719 23.6915 11.6758 22.6 12.8016C21.7665 13.6781 20.7094 14.125 19.5149 14.125C16.7305 14.125 14.6594 11.4523 15.3555 8.75389C15.5532 8.00624 15.8883 7.44764 16.5157 6.81171C17.5641 5.75467 18.9649 5.32499 20.4 5.62577Z" fill="#28A745"/>
<path d="M20.1766 9.0547L18.4492 10.7649L17.7961 10.1289C17.0656 9.41564 16.8164 9.3297 16.3953 9.66485C16.2234 9.80235 16.1719 9.91407 16.1719 10.1891C16.1719 10.5156 16.2234 10.593 17.0398 11.4266C17.9336 12.3289 18.2602 12.5524 18.5953 12.4578C18.707 12.432 19.7039 11.5039 20.8125 10.3953C22.7031 8.4961 22.8234 8.3586 22.8234 8.05782C22.8234 7.8172 22.7633 7.69689 22.5828 7.5422C22.1187 7.13829 22.0414 7.18985 20.1766 9.0547Z" fill="#28A745"/>
<path d="M5.38672 11.2461C5.24922 11.375 5.17188 11.5555 5.17188 11.7188C5.17188 11.882 5.24922 12.0625 5.38672 12.1914C5.59297 12.4062 5.61875 12.4062 7.10547 12.4062C8.59219 12.4062 8.61797 12.4062 8.82422 12.1914C8.96172 12.0625 9.03906 11.882 9.03906 11.7188C9.03906 11.5555 8.96172 11.375 8.82422 11.2461C8.61797 11.0312 8.59219 11.0312 7.10547 11.0312C5.61875 11.0312 5.59297 11.0312 5.38672 11.2461Z" fill="#28A745"/>
<path d="M5.35237 14.4344C5.11174 14.7437 5.12034 15.1133 5.38674 15.3711L5.59299 15.5859H8.6094H11.6258L11.8321 15.3711C12.0985 15.1133 12.1071 14.7437 11.8664 14.4344L11.6946 14.2109H8.6094H5.52424L5.35237 14.4344Z" fill="#28A745"/>
<path d="M5.55857 19.6422C5.13748 19.8656 5.05154 20.3039 5.35232 20.6906L5.52419 20.9141H14.6164H23.7086L23.889 20.7164C24.1468 20.4414 24.1383 20.0203 23.8633 19.7539L23.657 19.5391H14.6937C8.36873 19.5477 5.67888 19.5734 5.55857 19.6422Z" fill="#28A745"/>
<path d="M5.38674 23.0195C5.12034 23.2773 5.11174 23.6469 5.35237 23.9562L5.52424 24.1797H14.6164H23.7086L23.8891 23.982C24.1469 23.707 24.1383 23.2859 23.8633 23.0195L23.6571 22.8047H14.625H5.59299L5.38674 23.0195Z" fill="#28A745"/>
<path d="M5.38672 26.1992C5.24922 26.3281 5.17188 26.5086 5.17188 26.6719C5.17188 26.8352 5.24922 27.0156 5.38672 27.1445L5.59297 27.3594H10.6719H15.7508L15.957 27.1445C16.2406 26.8695 16.2406 26.4742 15.957 26.1992L15.7508 25.9844H10.6719H5.59297L5.38672 26.1992Z" fill="#28A745"/>
<path d="M5.63594 31.7422C5.4125 31.8281 5.17188 32.1547 5.17188 32.3609C5.17188 32.6188 5.35234 32.9195 5.57578 33.0227C5.70469 33.0828 6.55547 33.1172 8.00781 33.1172C10.1992 33.1172 10.2336 33.1172 10.457 32.9195C10.7578 32.6703 10.775 32.1547 10.5086 31.8797C10.3281 31.7078 10.2422 31.6992 8.06797 31.682C6.83047 31.6734 5.73047 31.6992 5.63594 31.7422Z" fill="#28A745"/>
<path d="M19.1282 31.7766C18.7157 31.957 18.6126 32.4984 18.9133 32.868L19.0766 33.0742H21.4141H23.7516L23.9149 32.868C24.0954 32.6531 24.1297 32.2578 23.9922 32C23.8376 31.7078 23.4336 31.6562 21.3797 31.6562C19.9102 31.6648 19.3258 31.6906 19.1282 31.7766Z" fill="#28A745"/>
</svg>
