<svg width="44" height="44" viewBox="0 0 44 44" fill="none" xmlns="http://www.w3.org/2000/svg">
<path d="M17.2304 0.146091C16.3109 0.232029 14.1367 0.644531 13.0023 0.953907C10.1148 1.74453 6.9351 3.13672 3.4976 5.10469C1.50385 6.24765 0.696039 6.78047 0.635882 6.98672C0.618695 7.08984 0.610101 10.9656 0.627289 15.5977C0.65307 23.7445 0.661664 24.0539 0.842132 24.9648C1.59838 28.8922 3.57494 32.2953 6.5226 34.7531C6.88354 35.0539 9.87416 37.2367 13.1742 39.6086C18.5195 43.45 19.207 43.9141 19.4906 43.9141C19.7742 43.9141 20.2382 43.6047 23.4609 41.2844C25.4718 39.8406 27.1992 38.5945 27.3023 38.5258C27.4913 38.4055 27.5257 38.4141 27.9898 38.818C30.8515 41.2672 34.7359 41.8258 38.0445 40.2617C40.1242 39.282 41.757 37.6062 42.6421 35.5523C43.2179 34.2203 43.3554 33.5156 43.3468 31.8398C43.3468 30.5336 43.321 30.2844 43.1148 29.5195C42.6765 27.9039 41.7742 26.3656 40.5624 25.1797C40.021 24.6555 39.0413 23.9336 38.5773 23.7188L38.371 23.6242L38.3968 15.4C38.414 8.86016 38.3968 7.13281 38.3109 6.96953C38.0273 6.41953 32.9484 3.60938 30.0351 2.38047C27.3367 1.2375 24.6898 0.50703 22.1718 0.214844C21.2007 0.094532 18.2101 0.060154 17.2304 0.146091ZM22.6015 1.76172C24.114 1.99375 25.4117 2.31172 26.9843 2.83594C29.846 3.78125 32.3554 4.97578 35.939 7.09844L36.9531 7.69141L36.9273 15.2711C36.9187 19.4391 36.8843 22.868 36.8499 22.9023C36.8242 22.9281 36.4976 22.8937 36.1195 22.8164L35.4492 22.6703V15.632C35.4492 8.71406 35.4492 8.59375 35.2773 8.43047C34.8304 7.98359 30.8687 5.87812 29.0468 5.11328C26.8812 4.20234 24.9648 3.62656 22.9195 3.24844C21.9999 3.08516 21.5703 3.05938 19.5078 3.05078C17.4195 3.05078 17.0242 3.07656 16.0617 3.24844C13.3804 3.72969 10.8882 4.58906 7.94057 6.05C5.95541 7.02969 3.72104 8.29297 3.60932 8.50781C3.55776 8.61094 3.52338 11.275 3.52338 15.8297C3.52338 23.4352 3.54916 23.9422 3.95307 25.5148C4.64916 28.2562 6.27338 30.8 8.49057 32.5961C9.22104 33.1977 18.8718 40.1242 19.1898 40.2875C19.3187 40.3562 19.5163 40.382 19.6281 40.3562C19.7312 40.3305 21.1663 39.3422 22.8163 38.1562L25.807 36.0078L26.0046 36.3516C26.1163 36.5492 26.2882 36.8242 26.3913 36.9703C26.5117 37.1336 26.546 37.2453 26.4859 37.2883C26.4429 37.3141 24.8703 38.4398 22.9882 39.7891C21.1148 41.1383 19.5335 42.2297 19.4648 42.2297C19.3531 42.2211 9.17807 34.9422 7.94916 33.9883C5.25932 31.9 3.34291 28.9953 2.54369 25.7727C2.07104 23.8906 2.06244 23.7102 2.06244 15.3742V7.67422L3.37729 6.90078C8.40463 3.91016 12.9249 2.16562 16.7578 1.72734C17.2046 1.67578 17.6945 1.61562 17.832 1.59844C18.4249 1.5125 21.7421 1.62422 22.6015 1.76172ZM22.6273 4.71797C24.5523 5.06172 26.3312 5.59453 28.3163 6.41953C29.5624 6.94375 32.0288 8.18125 33.2148 8.87734L33.9882 9.33281V15.9414V22.5586L33.0515 22.6617C32.2523 22.7563 31.1437 23.057 30.2328 23.418C30.0953 23.4781 30.0781 23.4094 30.0781 22.6961C30.0781 22.1719 30.0351 21.8281 29.9492 21.6648C29.8117 21.3984 29.846 21.407 27.5257 20.7367L26.3828 20.4102V19.3789V18.3477L27.8695 17.8406C29.7343 17.2047 29.8718 17.1445 29.9921 16.8523C30.0523 16.6891 30.0781 16.0359 30.0609 14.8328C30.0351 13.0711 30.0351 13.0453 29.8288 12.882C29.5453 12.65 29.0898 12.6672 28.832 12.9336C28.6171 13.1398 28.6171 13.1656 28.6171 14.5836V16.0359L27.6117 16.3711C27.0531 16.5602 26.5546 16.7234 26.4945 16.7406C26.4257 16.7578 26.3913 16.4141 26.3656 15.5375C26.3312 14.1109 26.2367 13.8445 25.5578 13.243C25.1109 12.8477 24.5179 12.6328 23.8734 12.6328C23.4781 12.6328 23.4609 12.6242 23.4609 12.3922C23.4609 11.7133 22.9453 10.2953 22.4726 9.65937L22.2663 9.39297L22.696 9.06641C23.5038 8.45625 23.6328 8.29297 23.6328 7.94062C23.6328 7.49375 23.3663 7.21875 22.9367 7.21875C22.6617 7.21875 22.4984 7.31328 21.8796 7.82031L21.1492 8.41328L20.7367 8.22422C20.1609 7.95781 18.7945 7.95781 18.2101 8.22422L17.8148 8.40469L17.0929 7.81172C16.4828 7.31328 16.3195 7.21875 16.0445 7.21875C15.4429 7.21875 15.0906 7.8375 15.4257 8.31015C15.4945 8.41328 15.8039 8.68828 16.1132 8.9375L16.6718 9.38437L16.5085 9.60781C16.0445 10.2781 15.6835 11.2492 15.5117 12.2977L15.4687 12.607L14.8757 12.6586C13.9046 12.7359 13.2257 13.1742 12.8304 13.9906C12.6156 14.4289 12.5898 14.5836 12.564 15.6234C12.5382 16.4227 12.4953 16.7578 12.4265 16.732C12.3749 16.7148 11.9023 16.5516 11.3695 16.3625L10.4156 16.0359L10.3812 14.5836L10.3554 13.1312L10.1148 12.925C9.8226 12.6758 9.46166 12.6586 9.16088 12.8992L8.93744 13.0711V14.9961C8.93744 16.9125 8.93744 16.9211 9.1351 17.0758C9.24682 17.1617 10.0632 17.4797 10.9398 17.7805L12.5468 18.3305V19.3789V20.4273L10.9398 20.8914C10.0632 21.1406 9.24682 21.4242 9.1351 21.5102L8.93744 21.6648V23.7531C8.93744 25.2828 8.96323 25.8758 9.04916 25.9789C9.30698 26.3312 10.0976 26.2797 10.2781 25.9016C10.3124 25.807 10.3726 25.025 10.3984 24.157L10.4414 22.5672L11.3867 22.2836C11.9109 22.1289 12.3749 22.0086 12.4265 22C12.4867 22 12.5382 22.3266 12.5726 22.8766C12.6414 23.9078 12.8734 24.9133 13.2343 25.6781L13.4921 26.2195L13.2515 26.3484C13.1226 26.4258 12.7359 26.632 12.3921 26.8211C11.9796 27.0445 11.739 27.2422 11.6874 27.3797C11.6359 27.5 11.6015 28.4281 11.6015 29.4336C11.6015 31.2211 11.6101 31.2812 11.7992 31.4961C12.057 31.7969 12.5554 31.8141 12.8562 31.5305C13.0624 31.3414 13.0624 31.3156 13.0624 29.7344V28.1359L13.7328 27.775L14.4117 27.4141L14.6179 27.6375C14.9445 27.9898 15.8124 28.6172 16.3453 28.8836C16.6117 29.0211 17.1789 29.2359 17.5914 29.3562C18.6054 29.657 20.221 29.6828 21.2523 29.4078C22.189 29.15 23.3406 28.5312 24.0023 27.9211L24.5695 27.4141L25.1281 27.7148L25.6867 28.0242L25.5148 28.4195C25.0163 29.5883 24.7585 31.4187 24.9132 32.7594C24.9648 33.2492 25.0679 33.8594 25.1367 34.1172C25.2054 34.375 25.2484 34.5898 25.2398 34.5898C25.2312 34.5984 23.9679 35.5008 22.4382 36.6008C20.9085 37.7008 19.6109 38.6203 19.5507 38.6461C19.4476 38.6805 11.5929 33.1031 9.88276 31.7883C7.38198 29.8633 5.99838 27.7062 5.22494 24.5352C5.04448 23.7789 5.03588 23.6242 5.0101 16.543L4.97573 9.32422L5.90385 8.7914C9.98588 6.47969 13.4578 5.14766 16.5859 4.69219C17.0843 4.61484 17.6085 4.5375 17.746 4.52031C17.8921 4.50312 18.8203 4.49453 19.8085 4.51172C21.1663 4.5289 21.8624 4.58047 22.6273 4.71797ZM20.2554 9.61641C20.9773 9.94297 21.6046 10.8109 21.871 11.8336C22.1031 12.7188 22.3523 12.6328 19.4648 12.6328H16.9382L16.9812 12.3492C17.3679 10.2094 18.8374 8.98047 20.2554 9.61641ZM24.4062 14.2227C24.7671 14.4117 24.9218 14.7641 24.9218 15.4258V15.9844H19.4648H14.0078V15.4344C14.0078 14.8328 14.2226 14.4031 14.6093 14.2055C14.7726 14.1195 15.9328 14.0938 19.4906 14.0938C23.4953 14.0938 24.1913 14.1109 24.4062 14.2227ZM18.7343 22.7734C18.7343 25.7039 18.6999 28.1016 18.6656 28.1016C18.6312 28.1016 18.382 28.0414 18.107 27.9727C16.6804 27.6031 15.2882 26.4602 14.6179 25.0938C14.0765 23.9937 14.0163 23.4867 14.0078 20.2125V17.4453H16.371H18.7343V22.7734ZM24.9218 20.393C24.9218 23.0484 24.9046 23.418 24.7499 24.0109C24.4062 25.3602 23.6242 26.4602 22.464 27.2336C21.8882 27.6203 20.7023 28.1016 20.3156 28.1016C20.2124 28.1016 20.1953 27.3711 20.1953 22.7734V17.4453H22.5585H24.9218V20.393ZM27.7406 22.3438L28.6171 22.6102V23.4781V24.3461L27.9038 25.0164C27.3538 25.5234 26.5632 26.4344 26.4171 26.7094C26.4085 26.7266 25.6351 26.3227 25.532 26.2453C25.5148 26.2281 25.6437 25.9016 25.807 25.5063C26.1937 24.6039 26.3828 23.6758 26.3828 22.6961V21.9227L26.6234 22C26.7523 22.043 27.2507 22.1977 27.7406 22.3438ZM35.707 24.2258C38.5859 24.8188 40.9062 27.0359 41.7054 29.9492C41.8601 30.525 41.8945 30.8516 41.8859 31.9258C41.8773 33.0687 41.8515 33.3008 41.6453 33.9883C40.7859 36.807 38.6288 38.8352 35.7671 39.5055C34.8304 39.7203 33.1976 39.6945 32.2695 39.4539C31.5046 39.2562 30.3788 38.7406 29.7515 38.3195C29.1585 37.907 28.2218 36.9875 27.7921 36.3773C26.7007 34.8648 26.1593 32.8109 26.3742 31.0234C26.632 28.918 27.7663 26.907 29.3734 25.6953C31.2382 24.2945 33.4984 23.7703 35.707 24.2258Z" fill="#28A745"/>
<path d="M37.4687 27.3797C37.2882 27.457 36.2655 28.4109 34.8905 29.7773L32.6132 32.0547L31.9343 31.1953C31.1608 30.2156 30.8171 29.9922 30.078 29.9922C28.8491 29.9922 28.0413 31.0922 28.4023 32.2695C28.5054 32.5961 28.8491 33.0945 29.889 34.375C30.628 35.2945 31.3671 36.1367 31.5218 36.2399C31.9085 36.4891 32.4757 36.5664 32.9827 36.4375C33.3523 36.3344 33.6616 36.0508 36.5062 33.2234C38.5257 31.2125 39.6858 30.0008 39.789 29.7688C40.1069 29.1156 39.9437 28.1617 39.4366 27.6977C38.9554 27.2594 38.0788 27.1133 37.4687 27.3797ZM38.4483 28.8922C38.5257 29.0297 38.1218 29.468 35.5351 32.0547C33.8851 33.7047 32.4843 35.0625 32.4327 35.0625C32.3554 35.0625 29.9921 32.1664 29.7858 31.8141C29.6999 31.6766 29.8804 31.4531 30.078 31.4531C30.1726 31.4531 30.5593 31.8742 31.0663 32.5016C32.089 33.7906 32.1663 33.8594 32.5616 33.8594C32.8538 33.8594 33.0085 33.7219 35.4491 31.2813C38.0702 28.6602 38.2249 28.5399 38.4483 28.8922Z" fill="#28A745"/>
</svg>
