<svg width="54" height="54" viewBox="0 0 54 54" fill="none" xmlns="http://www.w3.org/2000/svg">
<g clip-path="url(#clip0_1_272)">
<path d="M5.88516 9.00705C4.47188 9.5133 3.38555 10.7578 3.375 11.8758C3.375 12.4242 3.70195 12.7617 4.2293 12.7617C4.66172 12.7617 4.87266 12.5613 5.27344 11.7703C5.5793 11.1586 6.075 10.8 6.84492 10.6524C7.54102 10.5258 37.8 10.5153 38.4855 10.6418C39.0867 10.7578 39.7406 11.243 40.0148 11.7598C40.2152 12.1395 40.2469 12.4137 40.2891 14.3754C40.3418 16.5375 40.3418 16.5797 40.5949 16.7801C40.9535 17.0649 41.502 17.0438 41.8289 16.7168L42.1031 16.4426L42.0609 14.1012C42.0293 11.8125 42.0187 11.7492 41.7445 11.1586C41.3754 10.3571 40.616 9.56604 39.8777 9.20744L39.2871 8.91213L22.7812 8.89104C9.37617 8.86994 6.20156 8.89104 5.88516 9.00705Z" fill="#28A745"/>
<path d="M2.1832 14.4598C1.62422 14.5969 1.26562 14.7973 0.822656 15.2402C0.210938 15.8625 0.0527344 16.2738 0.0527344 17.2969C0.0527344 18.3199 0.200391 18.7312 0.822656 19.3535C1.48711 20.0285 1.96172 20.1762 3.56484 20.2289C4.80938 20.2711 4.96758 20.2922 4.9043 20.4504C4.44023 21.6422 5.13633 23.3086 6.37031 23.973C6.77109 24.184 6.97148 24.2051 9.13359 24.2367L11.4645 24.2684L11.4117 25.1121C11.3801 25.7449 11.4117 26.0613 11.5488 26.441C11.802 27.0949 12.382 27.7172 13.0254 28.0125C13.5527 28.2656 13.5633 28.2656 18.0562 28.2656H22.5598L22.7707 27.9914C23.0555 27.6328 23.0555 27.2109 22.7707 26.8523L22.5598 26.5781H18.4781C16.0102 26.5781 14.2383 26.5359 14.0063 26.4727C13.173 26.2406 12.9094 25.302 13.4895 24.6586L13.7953 24.3105L16.4742 24.2789C18.1828 24.2684 19.227 24.2156 19.3746 24.1418C19.8914 23.8676 19.923 23.066 19.4379 22.6758C19.1742 22.4754 18.9949 22.4648 13.2996 22.4648C7.75195 22.4648 7.41445 22.4543 7.10859 22.2645C6.72891 22.0324 6.48633 21.5262 6.58125 21.157C6.61289 21.0094 6.76055 20.7562 6.89766 20.598L7.15078 20.3027L10.8633 20.25L14.5758 20.1973L14.8289 19.902C15.1559 19.5117 15.1559 19.0477 14.8184 18.7207L14.5652 18.457H8.70117C2.40469 18.457 2.34141 18.4465 1.96172 17.9191C1.75078 17.6027 1.74023 16.991 1.96172 16.6852C2.3625 16.1156 1.93008 16.1367 12.6035 16.1367H22.4754L22.7285 15.873C23.1715 15.4406 23.0555 14.7656 22.4965 14.4703C22.2223 14.3121 2.81602 14.3121 2.1832 14.4598Z" fill="#28A745"/>
<path d="M40.8691 18.6785C40.384 18.9527 40.3945 18.784 40.3945 25.5973V32.0625H22.2012C2.77383 32.0625 3.52266 32.0414 3.33281 32.5371C3.30117 32.632 3.26953 34.0348 3.26953 35.6484V38.5805L3.61758 39.2449C3.99727 39.9832 4.69336 40.5949 5.37891 40.8059C5.60039 40.8691 6.53906 40.9219 7.56211 40.9219C9.2918 40.9219 9.35508 40.9113 9.57656 40.6793C9.89297 40.3418 9.88242 39.7617 9.56602 39.4664C9.34453 39.2555 9.20742 39.2344 7.95234 39.2344C6.24375 39.2238 5.84297 39.1395 5.4 38.6648L5.0625 38.2852V36.0703V33.8555H23.298C33.3281 33.8555 41.618 33.8238 41.7129 33.7922C42.177 33.6129 42.1875 33.4863 42.1875 26.7363V20.3555H44.8031C46.3219 20.3555 47.577 20.4082 47.8195 20.4715C48.5156 20.6613 49.0852 21.3047 49.4965 22.3383C49.6969 22.8445 50.393 24.5848 51.0574 26.209L52.2598 29.1621L52.2914 30.607L52.3336 32.0625H51.1313C49.9816 32.0625 49.9078 32.0731 49.4438 32.3684C48.3047 33.0856 48.1465 34.8258 49.1273 35.775C49.7602 36.3973 50.5512 36.7348 51.5004 36.7875L52.3125 36.8402V37.2727C52.302 37.9898 52.1332 38.5066 51.7957 38.8441C51.5426 39.1078 51.3527 39.1816 50.8148 39.2449C50.0449 39.3398 49.7812 39.5719 49.7812 40.1731C49.7812 40.4578 49.8551 40.6371 50.0449 40.8164C50.277 41.0379 50.3719 41.0484 51.0891 41.0063C51.7008 40.9641 51.9855 40.8902 52.4285 40.6371C53.0613 40.2891 53.6941 39.5297 53.884 38.918C54.0633 38.2957 54.0422 28.9934 53.8523 28.3711C53.768 28.1074 53.1352 26.4938 52.4391 24.7852C51.7535 23.0766 51.0996 21.4629 51.0047 21.1992C50.6145 20.1762 49.7496 19.3008 48.6422 18.8262C48.1887 18.6363 47.8617 18.6152 44.6133 18.5941C42.1242 18.5731 41.0168 18.5941 40.8691 18.6785ZM52.3125 34.3828V35.0156H51.8168C51.2578 35.0156 50.4668 34.6781 50.3086 34.3723C50.2242 34.2246 50.2453 34.1297 50.4141 33.9609C50.5934 33.7816 50.7621 33.75 51.4688 33.75H52.3125V34.3828Z" fill="#28A745"/>
<path d="M45.3093 21.7477C44.7293 21.9059 43.9277 22.7074 43.7695 23.2875C43.6957 23.5828 43.664 24.5637 43.6851 26.093L43.7168 28.4449L44.0332 28.9512C44.2652 29.3309 44.5078 29.5523 44.9191 29.7633L45.4781 30.0586H48.2414C50.9941 30.0586 51.0152 30.0586 51.2367 29.816C51.532 29.5102 51.5425 28.909 51.2683 28.5715C51.0679 28.3184 51.0574 28.3184 48.4523 28.2867C46.2269 28.2551 45.805 28.234 45.6468 28.0863C45.4781 27.9387 45.457 27.6961 45.457 25.8715C45.457 23.298 45.3832 23.4141 47.039 23.4141C48.1359 23.4141 48.2203 23.4035 48.4629 23.1504C48.7898 22.834 48.8109 22.275 48.5261 21.927C48.3363 21.6844 48.2519 21.6738 47.0179 21.6527C46.3113 21.6422 45.5308 21.6844 45.3093 21.7477Z" fill="#28A745"/>
<path d="M3.63867 24.5953C3.18516 24.859 3.17461 24.9539 3.16406 27.5062V29.9637L3.42773 30.2168C3.59648 30.3961 3.79688 30.4805 4.06055 30.4805C4.32422 30.4805 4.52461 30.3961 4.69336 30.2168L4.95703 29.9637V27.5379C4.95703 25.1754 4.94648 25.1016 4.725 24.8484C4.44023 24.532 3.94453 24.416 3.63867 24.5953Z" fill="#28A745"/>
<path d="M44.0227 31.0184C43.6641 31.1977 43.5586 31.5773 43.5586 32.632C43.5586 33.4652 43.5902 33.6551 43.7801 33.8977C43.9488 34.1191 44.0859 34.1719 44.4551 34.1719C44.8242 34.1719 44.9613 34.1191 45.1301 33.8977C45.3199 33.6551 45.3516 33.4652 45.3516 32.5371C45.3516 31.6617 45.3199 31.4086 45.1723 31.2293C44.9508 30.9656 44.3496 30.8602 44.0227 31.0184Z" fill="#28A745"/>
<path d="M14.0063 35.216C12.4981 35.7012 11.2852 36.9246 10.7684 38.4645C10.4731 39.3399 10.4625 40.7532 10.7473 41.6496C11.243 43.2422 12.5297 44.4762 14.2278 44.993C14.9239 45.2145 16.411 45.1828 17.202 44.9297C19.343 44.2758 20.6719 42.409 20.6719 40.0676C20.6719 37.7578 19.2481 35.8067 17.0965 35.1844C16.3055 34.9524 14.7762 34.9735 14.0063 35.216ZM17.0649 37.1145C18.1829 37.684 18.784 38.6438 18.8579 39.9516C18.9 40.7637 18.8789 40.8692 18.5731 41.4914C18.1934 42.2719 17.6977 42.7465 16.8961 43.1157C16.4004 43.3371 16.2211 43.3688 15.4618 43.3266C14.175 43.2528 13.2153 42.641 12.6457 41.5336C12.361 40.9852 12.2661 39.8039 12.4348 39.1606C12.6879 38.243 13.6899 37.1989 14.5969 36.9141C15.1664 36.7348 16.5586 36.8508 17.0649 37.1145Z" fill="#28A745"/>
<path d="M42.3457 35.1633C40.1414 35.8594 38.707 37.8 38.707 40.0676C38.707 41.4387 39.1289 42.5672 39.9937 43.5059C41.0273 44.6344 42.1875 45.1406 43.7695 45.1406C46.4168 45.1406 48.4313 43.432 48.832 40.848C49.2117 38.3906 47.7035 35.9437 45.341 35.216C44.5922 34.984 43.0102 34.9523 42.3457 35.1633ZM45.225 37.125C46.7543 37.8949 47.4398 39.6035 46.8914 41.2383C46.6172 42.0187 45.7313 42.9047 44.9508 43.1789C44.1176 43.4637 42.9469 43.3793 42.198 42.9785C40.4684 42.0293 39.9621 39.7406 41.1223 38.1586C41.7867 37.2621 42.6621 36.8297 43.8328 36.8191C44.4656 36.8086 44.6766 36.8613 45.225 37.125Z" fill="#28A745"/>
<path d="M21.7266 39.4453C21.5895 39.5824 21.5156 39.7934 21.5156 40.0781C21.5156 40.3629 21.5895 40.5738 21.7266 40.7109C21.9375 40.9219 22.0746 40.9219 29.7422 40.9219C37.4098 40.9219 37.5469 40.9219 37.7578 40.7109C37.8949 40.5738 37.9688 40.3629 37.9688 40.0781C37.9688 39.7934 37.8949 39.5824 37.7578 39.4453C37.5469 39.2344 37.4098 39.2344 29.7422 39.2344C22.0746 39.2344 21.9375 39.2344 21.7266 39.4453Z" fill="#28A745"/>
</g>
<defs>
<clipPath id="clip0_1_272">
<rect width="54" height="54" fill="white"/>
</clipPath>
</defs>
</svg>
